# xmcd
#
# Track frame offsets:
# 150
# 18270
# 36267
# 53417
# 70610
# 87740
# 100382
# 114217
# 128810
# 144610
# 161710
# 179777
# 196790
# 210327
# 227062
#
# Disc length: 3204 seconds
#
#
# Revision: 0
# Processed by: cddbd v1.5.2PL0 Copyright (c) Steve Scherf et al.
# Submitted via: FreeRIP 2.945 
#
DISCID=ca0c820f
DTITLE=Jean Lucas and Raphael - Deixa Chover
DYEAR=2006
DGENRE=Pop
TTITLE0=Deixa Chover
TTITLE1=Não Há Mais Tempo
TTITLE2=Quem é Essa Mulher
TTITLE3=Amor Sem Fim
TTITLE4=Cãozinho Abandonado
TTITLE5=Doce Pecado
TTITLE6=Duvidei
TTITLE7=Não Pode Ser Assim
TTITLE8=Prefiro A Solidão
TTITLE9=Quando Eu Pegar A Estrada
TTITLE10=Quero Casar Com Você
TTITLE11=As Belezas do Rio Madeira
TTITLE12=Uma Semana de Paixão
TTITLE13=Você é Meu Paraíso
TTITLE14=Vou Fazer DNA
EXTD=Música de Trabalho: Deixa Chover, Doce Pecado e As Belezas do Rio Madeira
EXTT0=
EXTT1=
EXTT2=
EXTT3=
EXTT4=
EXTT5=
EXTT6=
EXTT7=
EXTT8=
EXTT9=
EXTT10=
EXTT11=
EXTT12=
EXTT13=
EXTT14=
PLAYORDER=
